<svg width="22" height="16" viewBox="0 0 22 16" fill="none" xmlns="http://www.w3.org/2000/svg">
<g clip-path="url(#clip0_538_7371)">
<path d="M11.2216 0.72583C12.9772 0.725878 14.2334 1.14067 14.9736 1.95239C15.7138 2.76432 15.8344 3.95624 15.3007 5.51099C14.7671 7.06568 13.8894 8.22288 12.6328 9.00024C11.3761 9.7776 9.84425 10.175 8.07123 10.175H5.34857L3.83978 14.719C3.78813 14.8743 3.70199 14.9953 3.56439 15.0989C3.42673 15.2024 3.28859 15.2366 3.13373 15.2366H0.847595C0.709972 15.2365 0.606852 15.1849 0.538025 15.0813C0.469211 14.9777 0.452303 14.8571 0.503845 14.719L4.74896 1.24438C4.8006 1.08894 4.88668 0.968141 5.02435 0.864502C5.16207 0.760852 5.29972 0.72583 5.43744 0.72583H11.2216ZM20.1904 5.42407C20.3453 5.42407 20.4487 5.47637 20.5175 5.56274C20.5863 5.64912 20.5867 5.7872 20.5351 5.94263L17.4833 14.719C17.4317 14.8571 17.345 14.9777 17.2245 15.0813C17.087 15.1848 16.9496 15.2365 16.7949 15.2366H14.1161C13.9614 15.2366 13.8579 15.1851 13.789 15.0989C13.7202 14.9953 13.72 14.8742 13.7714 14.719L16.8242 5.94263C16.8758 5.78715 16.9618 5.66639 17.0995 5.56274C17.22 5.45915 17.3749 5.42407 17.5126 5.42407H20.1904ZM6.26068 7.32446H8.93158C9.53406 7.32446 10.068 7.16957 10.5156 6.85864C10.9631 6.54773 11.2904 6.08133 11.497 5.47681C11.6864 4.90673 11.6684 4.45707 11.4619 4.11157C11.2552 3.76632 10.8248 3.6106 10.1708 3.6106H7.49994L6.26068 7.32446ZM21.499 1.21899C21.6539 1.21899 21.7573 1.27129 21.8261 1.35767C21.8948 1.46126 21.8953 1.5822 21.8437 1.73755L21.2236 3.60278C21.172 3.75816 21.0857 3.87906 20.9482 3.98267C20.8277 4.08629 20.6728 4.12132 20.5351 4.12134H17.8222C17.6673 4.12134 17.5639 4.06904 17.4951 3.98267C17.4264 3.87909 17.4259 3.7581 17.4775 3.60278L18.0976 1.73755C18.1492 1.58214 18.2354 1.46129 18.373 1.35767C18.5107 1.25403 18.6484 1.219 18.7861 1.21899H21.499Z" fill="#E7992D"/>
</g>
<defs>
<clipPath id="clip0_538_7371">
<rect width="22" height="16" fill="white"/>
</clipPath>
</defs>
</svg>
