<svg width="33" height="22" viewBox="0 0 33 22" fill="none" xmlns="http://www.w3.org/2000/svg">
<path d="M4.42357 16.8871C7.49829 16.8871 9.32469 14.4827 9.32469 10.411C9.32469 8.87779 9.03146 7.58758 8.47014 6.5906C7.65747 5.04068 6.25835 4.20288 4.4906 4.20288C1.85991 4.20288 0 5.97063 0 8.45052C0 10.7796 1.6756 12.4719 3.97954 12.4719C5.39542 12.4719 6.5432 11.8101 7.1129 10.6623H7.13804C7.13804 10.6623 7.17155 10.6623 7.17993 10.6623C7.19668 10.6623 7.25533 10.6623 7.25533 10.6623C7.25533 13.427 6.20808 15.0775 4.44033 15.0775C3.40146 15.0775 2.59717 14.5078 2.3207 13.5946H0.16756C0.527813 15.5802 2.21179 16.8871 4.42357 16.8871ZM4.49897 10.7545C3.10823 10.7545 2.11963 9.76586 2.11963 8.38349C2.11963 7.03464 3.1585 6.00415 4.50735 6.00415C5.85621 6.00415 6.89508 7.05139 6.89508 8.417C6.89508 9.76586 5.88134 10.7545 4.49897 10.7545Z" fill="white"/>
<path d="M12.8605 16.7698C13.6564 16.7698 14.201 16.2001 14.201 15.4461C14.201 14.6837 13.6564 14.1224 12.8605 14.1224C12.073 14.1224 11.5201 14.6837 11.5201 15.4461C11.5201 16.2001 12.073 16.7698 12.8605 16.7698ZM12.8605 10.4864C13.6564 10.4864 14.201 9.92504 14.201 9.17102C14.201 8.40863 13.6564 7.8473 12.8605 7.8473C12.073 7.8473 11.5201 8.40863 11.5201 9.17102C11.5201 9.92504 12.073 10.4864 12.8605 10.4864Z" fill="white"/>
<path d="M22.0431 16.5939H24.1125V14.3402H25.7462V12.5138H24.1125V4.50449H21.0629C18.9265 7.72163 17.2258 10.411 16.1367 12.4133V14.3402H22.0431V16.5939ZM18.139 12.4384C19.5465 9.95855 20.8032 7.97297 21.9594 6.26386H22.0766V12.5641H18.139V12.4384Z" fill="white"/>
<path d="M30.3544 16.5939H32.5159V4.50449H30.3628L27.2043 6.71627V8.79401L30.212 6.68276H30.3544V16.5939Z" fill="white"/>
</svg>
