<svg width="16" height="11" viewBox="0 0 16 11" fill="none" xmlns="http://www.w3.org/2000/svg">
<path d="M5.42676 8.40063C6.70233 7.32175 8.57111 7.32175 9.84668 8.40063C9.9107 8.45866 9.94745 8.54081 9.94922 8.6272C9.95095 8.71366 9.91719 8.79709 9.85547 8.85767L7.8584 10.8733C7.79987 10.9325 7.71997 10.966 7.63672 10.9661C7.55346 10.9661 7.47358 10.9325 7.41504 10.8733L5.41699 8.85767C5.35539 8.79707 5.32147 8.71358 5.32324 8.6272C5.32507 8.54075 5.36262 8.45862 5.42676 8.40063ZM2.76172 5.71118C5.50981 3.15514 9.76555 3.15519 12.5137 5.71118C12.5756 5.77104 12.6113 5.85358 12.6123 5.9397C12.6132 6.02588 12.5793 6.10899 12.5186 6.17017L11.3643 7.33716C11.2453 7.45626 11.0527 7.45891 10.9307 7.34302C10.0282 6.52583 8.85417 6.07344 7.63672 6.07349C6.42003 6.07399 5.2466 6.52635 4.34473 7.34302C4.22265 7.45884 4.03007 7.45624 3.91113 7.33716L2.75684 6.17017C2.69617 6.1091 2.66227 6.02579 2.66309 5.9397C2.66402 5.85357 2.69975 5.77102 2.76172 5.71118ZM0.0966797 3.02954C4.3118 -1.00963 10.9618 -1.00988 15.1768 3.02954C15.2377 3.08948 15.2719 3.17163 15.2725 3.25708C15.273 3.34264 15.239 3.42488 15.1787 3.4856L14.0225 4.65259C13.9033 4.77206 13.7107 4.77331 13.5898 4.65552C11.9839 3.12879 9.85254 2.27771 7.63672 2.27759C5.42062 2.27758 3.28877 3.12863 1.68262 4.65552C1.56183 4.77351 1.36905 4.77229 1.25 4.65259L0.09375 3.4856C0.0334857 3.42483 -0.000563029 3.34266 0 3.25708C0.00061595 3.17157 0.0356689 3.08946 0.0966797 3.02954Z" fill="white"/>
</svg>
