<svg width="32" height="32" viewBox="0 0 32 32" fill="none" xmlns="http://www.w3.org/2000/svg">
<path d="M15.5267 27.8857L15.5173 27.8818L15.488 27.8665C15.3164 27.776 15.1461 27.6832 14.9773 27.5879C12.9477 26.4322 11.051 25.0744 9.31867 23.5373C6.25067 20.7938 3 16.7227 3 11.7086C3 7.96717 6.28533 5.00009 10.2507 5.00009C11.353 4.99492 12.4424 5.22798 13.4378 5.68194C14.4331 6.1359 15.3089 6.79908 16 7.62216C16.6912 6.79891 17.5672 6.13563 18.5628 5.68166C19.5585 5.22769 20.6481 4.99472 21.7507 5.00009C25.7147 5.00009 29 7.96717 29 11.7086C29 16.724 25.7493 20.7951 22.6813 23.536C20.949 25.0732 19.0523 26.4309 17.0227 27.5867C16.8539 27.6823 16.6836 27.7756 16.512 27.8665L16.4827 27.8818L16.4733 27.887L16.4693 27.8882C16.3247 27.9616 16.1636 28 16 28C15.8364 28 15.6753 27.9616 15.5307 27.8882L15.5267 27.8857Z" fill="white"/>
</svg>
